<svg width="24" height="24" viewBox="0 0 24 24" class="svg-icon--custom svg-icon navigation-icon" xmlns="http://www.w3.org/2000/svg" data-name="SvgIcon--CustomHome3"><g clip-path="url(#clip0_14027_26034)"><path d="M18.54 22H16.14C14.89 22 13.88 20.99 13.88 19.75V16.59C13.88 16.01 13.4 15.54 12.81 15.54H11.1C10.51 15.54 10.03 16.01 10.03 16.59V19.75C10.03 20.99 9.01001 22 7.77001 22H5.46001C4.21001 22 3.20001 20.99 3.20001 19.75V11.06C3.20001 10.44 3.46001 9.83 3.93001 9.41L12 2L20.08 9.42C20.54 9.84 20.81 10.44 20.81 11.07V19.76C20.81 21 19.79 22.01 18.55 22.01L18.54 22ZM11.09 14.35H12.8C14.05 14.35 15.06 15.36 15.06 16.6V19.76C15.06 20.34 15.54 20.81 16.13 20.81H18.53C19.12 20.81 19.6 20.34 19.6 19.76V11.06C19.6 10.77 19.48 10.49 19.26 10.29L12 3.63L4.73001 10.3C4.51001 10.5 4.39001 10.78 4.39001 11.07V19.76C4.39001 20.34 4.87001 20.81 5.46001 20.81H7.77001C8.36001 20.81 8.84001 20.34 8.84001 19.76V16.6C8.84001 15.36 9.86001 14.35 11.1 14.35H11.09Z" fill="black"></path></g><defs><clipPath id="clip0_14027_26034"><rect width="24" height="24" fill="white"></rect></clipPath></defs></svg>